<svg id="Layer_1" data-name="Layer 1" xmlns="http://www.w3.org/2000/svg" viewBox="0 0 784.14 574.44"><defs><style>.cls-1{fill:#fff;}.cls-1,.cls-24,.cls-25,.cls-27,.cls-28{stroke:#231f20;stroke-miterlimit:10;}.cls-2,.cls-29{font-size:14px;}.cls-2,.cls-26,.cls-29,.cls-36{fill:#231f20;}.cls-2,.cls-29,.cls-36{font-family:MyriadPro-Regular, Myriad Pro;}.cls-3{letter-spacing:0em;}.cls-4{letter-spacing:-0.01em;}.cls-5{letter-spacing:0em;}.cls-6{letter-spacing:0em;}.cls-7{letter-spacing:-0.01em;}.cls-8{letter-spacing:-0.01em;}.cls-9{letter-spacing:-0.04em;}.cls-10{letter-spacing:-0.02em;}.cls-11{letter-spacing:0em;}.cls-12{letter-spacing:0.01em;}.cls-13,.cls-29{letter-spacing:-0.01em;}.cls-14{letter-spacing:-0.01em;}.cls-15{letter-spacing:-0.01em;}.cls-16{letter-spacing:-0.02em;}.cls-17{letter-spacing:-0.01em;}.cls-18{letter-spacing:0.01em;}.cls-19{letter-spacing:0.02em;}.cls-20{letter-spacing:-0.03em;}.cls-21{letter-spacing:0em;}.cls-22{letter-spacing:-0.01em;}.cls-23{letter-spacing:0em;}.cls-24,.cls-25,.cls-27,.cls-28{fill:none;}.cls-24{stroke-dasharray:6;}.cls-25{stroke-dasharray:6 6;}.cls-28{stroke-dasharray:5.9 5.9;}.cls-30{letter-spacing:0em;}.cls-31{letter-spacing:0em;}.cls-32{letter-spacing:0em;}.cls-33{letter-spacing:0.01em;}.cls-34{letter-spacing:0.01em;}.cls-35{letter-spacing:-0.03em;}.cls-36{font-size:10px;}.cls-37{letter-spacing:0.01em;}.cls-38{letter-spacing:0em;}.cls-39{letter-spacing:0em;}.cls-40{letter-spacing:-0.01em;}.cls-41{letter-spacing:-0.01em;}</style></defs><title>algoritmo</title><rect class="cls-1" x="347.64" y="0.5" width="84.91" height="27.54"/><text class="cls-2" transform="translate(373.19 17.79)">D<tspan class="cls-3" x="9.32" y="0">a</tspan><tspan class="cls-4" x="16.02" y="0">t</tspan><tspan class="cls-5" x="20.57" y="0">os</tspan></text><rect class="cls-1" x="497.17" y="322.45" width="84.91" height="27.54"/><text class="cls-2" transform="translate(520.97 339.74)"><tspan class="cls-6">A</tspan><tspan x="8.53" y="0">n</tspan><tspan class="cls-7" x="16.3" y="0">o</tspan><tspan class="cls-3" x="23.88" y="0">v</tspan><tspan x="30.56" y="0">a</tspan></text><rect class="cls-1" x="341.57" y="111.06" width="96.91" height="27.54"/><text class="cls-2" transform="translate(350.31 128.35)">Shapi<tspan class="cls-8" x="32.66" y="0">r</tspan><tspan x="37.1" y="0">o -</tspan><tspan class="cls-9" x="52.05" y="0"> </tspan><tspan class="cls-10" x="54.52" y="0">W</tspan><tspan x="66.14" y="0">ilk</tspan></text><rect class="cls-1" x="475.99" y="209.51" width="84.91" height="27.54"/><text class="cls-2" transform="translate(503.14 226.8)"><tspan class="cls-11">t</tspan><tspan x="4.56" y="0">-</tspan><tspan class="cls-4" x="8.86" y="0">t</tspan><tspan x="13.41" y="0">est</tspan></text><rect class="cls-1" x="146.59" y="289.46" width="105.92" height="27.54"/><text class="cls-2" transform="translate(151.41 306.75)">U <tspan class="cls-12" x="12.03" y="0">M</tspan><tspan x="23.37" y="0">ann -</tspan><tspan class="cls-9" x="52.92" y="0"> </tspan><tspan class="cls-10" x="55.38" y="0">W</tspan><tspan x="67" y="0">itney</tspan></text><rect class="cls-1" x="27.23" y="289.46" width="105.92" height="27.54"/><text class="cls-2" transform="translate(53.39 306.75)"><tspan class="cls-10">W</tspan><tspan x="11.62" y="0">il</tspan><tspan class="cls-13" x="18.2" y="0">c</tspan><tspan class="cls-14" x="24.39" y="0">o</tspan><tspan class="cls-15" x="31.88" y="0">x</tspan><tspan x="38.15" y="0">on</tspan></text><rect class="cls-1" x="236.79" y="505.15" width="84.91" height="27.54"/><text class="cls-2" transform="translate(254.04 522.45)"><tspan class="cls-16">P</tspan><tspan x="7.1" y="0">o</tspan><tspan class="cls-13" x="14.78" y="0">t</tspan><tspan x="19.33" y="0">encia</tspan></text><rect class="cls-1" x="406.4" y="538.05" width="97.02" height="27.54"/><text class="cls-2" transform="translate(423.06 555.34)"><tspan class="cls-17">C</tspan><tspan x="7.97" y="0">omunicar</tspan></text><text class="cls-2" transform="translate(280.4 402.95)">p &gt; α</text><text class="cls-2" transform="translate(300.53 570.94)"><tspan xml:space="preserve"> β &lt; 0.2</tspan></text><rect class="cls-1" x="233.71" y="209.51" width="105.92" height="27.54"/><text class="cls-2" transform="translate(243.81 226.8)"><tspan class="cls-18">K</tspan><tspan class="cls-5" x="7.73" y="0">rus</tspan><tspan class="cls-19" x="25.56" y="0">k</tspan><tspan x="32.38" y="0">al -</tspan><tspan class="cls-9" x="49.7" y="0"> </tspan><tspan class="cls-20" x="52.16" y="0">W</tspan><tspan x="63.54" y="0">allis</tspan></text><text class="cls-2" transform="translate(403.63 160.34)">p &gt; α</text><rect class="cls-1" x="594.28" y="322.45" width="84.91" height="27.54"/><text class="cls-2" transform="translate(599.15 339.74)">2<tspan class="cls-11" x="7.18" y="0">-</tspan><tspan class="cls-21" x="11.41" y="0">w</tspan><tspan class="cls-22" x="21.66" y="0">a</tspan><tspan x="28.29" y="0">y </tspan><tspan class="cls-23" x="37.86" y="0">A</tspan><tspan class="cls-5" x="46.38" y="0">n</tspan><tspan class="cls-7" x="54.15" y="0">o</tspan><tspan class="cls-3" x="61.74" y="0">v</tspan><tspan x="68.42" y="0">a</tspan></text><line class="cls-24" x1="279.25" y1="532.69" x2="279.25" y2="551.82"/><line class="cls-25" x1="279.25" y1="551.82" x2="399.22" y2="551.82"/><polygon class="cls-26" points="397.76 556.8 406.39 551.82 397.76 546.83 397.76 556.8"/><line class="cls-27" x1="279.25" y1="551.82" x2="276.25" y2="551.82"/><line class="cls-28" x1="270.35" y1="551.82" x2="13.63" y2="551.82"/><line class="cls-27" x1="10.68" y1="551.82" x2="7.68" y2="551.82"/><polygon class="cls-26" points="9.13 546.83 0.5 551.82 9.13 556.8 9.13 546.83"/><line class="cls-24" x1="0.5" y1="14.27" x2="0.5" y2="551.82"/><line class="cls-25" x1="330.07" y1="14.27" x2="0.5" y2="14.27"/><polygon class="cls-26" points="328.61 9.28 337.24 14.27 328.61 19.26 328.61 9.28"/><text class="cls-29" transform="translate(399.8 100.49)">t<tspan class="cls-30" x="4.55" y="0">est de no</tspan><tspan class="cls-31" x="58.04" y="0">r</tspan><tspan class="cls-30" x="62.68" y="0">malidad</tspan></text><line class="cls-27" x1="390.18" y1="83.32" x2="390.18" y2="103.89"/><polygon class="cls-26" points="385.19 102.43 390.18 111.06 395.17 102.43 385.19 102.43"/><text class="cls-2" transform="translate(215.62 570.94)"><tspan xml:space="preserve"> β &gt; 0.2</tspan></text><rect class="cls-1" x="354.61" y="55.78" width="70.97" height="27.54"/><text class="cls-2" transform="translate(365.17 73.07)"><tspan class="cls-32">D</tspan><tspan x="9.38" y="0">efinir α</tspan></text><line class="cls-27" x1="390.18" y1="28.04" x2="390.18" y2="48.61"/><polygon class="cls-26" points="385.19 47.15 390.18 55.78 395.17 47.15 385.19 47.15"/><rect class="cls-1" x="236.79" y="441.98" width="84.91" height="46.68"/><text class="cls-2" transform="translate(263.95 461.02)">Nada<tspan x="-19.74" y="16.8">si</tspan><tspan class="cls-4" x="-10.92" y="16.8">g</tspan><tspan class="cls-5" x="-3.18" y="16.8">nific</tspan><tspan class="cls-3" x="21.46" y="16.8">a</tspan><tspan x="28.15" y="16.8">ti</tspan><tspan class="cls-8" x="36.06" y="16.8">v</tspan><tspan x="42.66" y="16.8">o</tspan></text><line class="cls-24" x1="279.25" y1="488.66" x2="279.25" y2="505.15"/><rect class="cls-1" x="682.59" y="251.78" width="101.06" height="27.54"/><text class="cls-2" transform="translate(687.68 269.07)"><tspan class="cls-33">G</tspan><tspan x="9.16" y="0">ames - H</tspan><tspan class="cls-7" x="59.5" y="0">o</tspan><tspan class="cls-8" x="67.09" y="0">w</tspan><tspan class="cls-30" x="77.25" y="0">ell</tspan></text><text class="cls-2" transform="translate(346.77 160.34)">p &lt; α</text><line class="cls-27" x1="660.88" y1="181.69" x2="139.87" y2="181.69"/><line class="cls-27" x1="389.69" y1="138.6" x2="390.18" y2="181.69"/><line class="cls-27" x1="518.44" y1="202.61" x2="518.44" y2="181.69"/><polygon class="cls-26" points="523.43 201.15 518.44 209.78 513.46 201.15 523.43 201.15"/><line class="cls-27" x1="286.67" y1="202.61" x2="286.67" y2="181.69"/><polygon class="cls-26" points="291.66 201.15 286.68 209.78 281.69 201.15 291.66 201.15"/><text class="cls-2" transform="translate(492.75 172.65)">2 <tspan class="cls-4" x="10.15" y="0">g</tspan><tspan x="17.89" y="0">rupos</tspan></text><text class="cls-2" transform="translate(629.53 172.65)">&gt; 2 <tspan class="cls-13" x="21.46" y="0">g</tspan><tspan x="29.2" y="0">rupos</tspan></text><rect class="cls-1" x="618.42" y="209.51" width="84.91" height="27.54"/><text class="cls-2" transform="translate(639.97 226.8)"><tspan class="cls-14">L</tspan><tspan x="6.41" y="0">e</tspan><tspan class="cls-8" x="13.43" y="0">v</tspan><tspan class="cls-30" x="20.02" y="0">ene</tspan></text><text class="cls-2" transform="translate(529.85 287.5)">1 fa<tspan class="cls-34" x="20.99" y="0">c</tspan><tspan class="cls-13" x="27.44" y="0">t</tspan><tspan x="31.99" y="0">or</tspan></text><text class="cls-2" transform="translate(602.26 287.5)">2 fa<tspan class="cls-34" x="20.99" y="0">c</tspan><tspan class="cls-13" x="27.44" y="0">t</tspan><tspan x="31.99" y="0">or</tspan></text><line class="cls-27" x1="539.62" y1="295.27" x2="636.74" y2="295.27"/><line class="cls-27" x1="539.62" y1="315.27" x2="539.62" y2="295.27"/><polygon class="cls-26" points="544.61 313.81 539.63 322.45 534.64 313.81 544.61 313.81"/><line class="cls-27" x1="636.74" y1="315.27" x2="636.74" y2="295.27"/><polygon class="cls-26" points="641.72 313.81 636.74 322.45 631.75 313.81 641.72 313.81"/><line class="cls-27" x1="618.42" y1="223.28" x2="588.18" y2="223.28"/><line class="cls-27" x1="588.18" y1="295.27" x2="588.18" y2="223.28"/><line class="cls-27" x1="660.88" y1="202.34" x2="660.88" y2="181.69"/><polygon class="cls-26" points="665.87 200.88 660.88 209.51 655.89 200.88 665.87 200.88"/><line class="cls-27" x1="733.12" y1="244.6" x2="733.12" y2="223.28"/><polygon class="cls-26" points="738.1 243.14 733.12 251.78 728.13 243.14 738.1 243.14"/><line class="cls-27" x1="703.34" y1="223.28" x2="733.12" y2="223.28"/><text class="cls-2" transform="translate(707.25 216.05)">p &lt; α</text><text class="cls-2" transform="translate(585.29 216.05)">p &gt; α</text><line class="cls-24" x1="279.25" y1="411.27" x2="367.08" y2="411.27"/><line class="cls-27" x1="454.91" y1="530.87" x2="454.91" y2="411.27"/><polygon class="cls-26" points="459.89 529.41 454.91 538.05 449.92 529.41 459.89 529.41"/><line class="cls-25" x1="279.25" y1="434.8" x2="279.25" y2="411.27"/><polygon class="cls-26" points="284.23 433.34 279.25 441.98 274.26 433.34 284.23 433.34"/><line class="cls-27" x1="367.08" y1="411.27" x2="367.08" y2="394.63"/><line class="cls-27" x1="454.91" y1="411.27" x2="367.08" y2="411.27"/><text class="cls-2" transform="translate(423.79 402.95)">p &lt; α</text><rect class="cls-1" x="588.18" y="538.05" width="84.91" height="27.54"/><text class="cls-2" transform="translate(621.89 555.34)"><tspan class="cls-35">F</tspan><tspan x="6.45" y="0">in</tspan></text><line class="cls-27" x1="503.42" y1="551.82" x2="581" y2="551.82"/><polygon class="cls-26" points="579.55 556.8 588.18 551.82 579.55 546.83 579.55 556.8"/><text class="cls-2" transform="translate(114.18 172.65)">2 <tspan class="cls-4" x="10.15" y="0">g</tspan><tspan x="17.89" y="0">rupos</tspan></text><text class="cls-2" transform="translate(255.33 172.65)">&gt; 2 <tspan class="cls-13" x="21.46" y="0">g</tspan><tspan x="29.2" y="0">rupos</tspan></text><line class="cls-27" x1="80.19" y1="280.81" x2="80.19" y2="263.09"/><polygon class="cls-26" points="85.18 279.35 80.19 287.99 75.21 279.35 85.18 279.35"/><line class="cls-27" x1="199.55" y1="280.81" x2="199.55" y2="263.09"/><polygon class="cls-26" points="204.54 279.35 199.56 287.99 194.57 279.35 204.54 279.35"/><line class="cls-27" x1="80.19" y1="263.09" x2="199.55" y2="263.09"/><line class="cls-27" x1="139.87" y1="181.69" x2="139.87" y2="263.09"/><rect class="cls-1" x="330.53" y="385.11" width="84.91" height="27.54" transform="translate(-8.59 -15.49) rotate(-0.39)"/><text class="cls-2" transform="translate(325.68 384.72) rotate(-0.39)">¿Si<tspan class="cls-13" x="15.86" y="0">g</tspan><tspan x="23.6" y="0">nific</tspan><tspan class="cls-21" x="48.24" y="0">a</tspan><tspan x="54.94" y="0">ti</tspan><tspan class="cls-8" x="62.85" y="0">v</tspan><tspan x="69.44" y="0">o?</tspan></text><text class="cls-2" transform="translate(54.23 257.13)">dependie<tspan class="cls-3" x="55.85" y="0">n</tspan><tspan class="cls-13" x="63.56" y="0">t</tspan><tspan class="cls-30" x="68.11" y="0">e</tspan></text><text class="cls-2" transform="translate(149.75 257.13)">independie<tspan class="cls-3" x="66.89" y="0">n</tspan><tspan class="cls-13" x="74.6" y="0">t</tspan><tspan x="79.15" y="0">e</tspan></text><line class="cls-27" x1="317.43" y1="379.49" x2="80.19" y2="379.49"/><polygon class="cls-26" points="315.98 374.5 324.61 379.49 315.98 384.48 315.98 374.5"/><line class="cls-27" x1="80.19" y1="317" x2="80.19" y2="379.49"/><line class="cls-27" x1="199.55" y1="317" x2="199.55" y2="379.49"/><line class="cls-27" x1="286.67" y1="237.05" x2="286.67" y2="379.49"/><line class="cls-27" x1="416.7" y1="379.49" x2="733.11" y2="379.49"/><polygon class="cls-26" points="418.16 384.48 409.52 379.49 418.16 374.5 418.16 384.48"/><line class="cls-27" x1="733.12" y1="279.32" x2="733.12" y2="379.49"/><line class="cls-27" x1="539.62" y1="349.99" x2="539.62" y2="379.49"/><line class="cls-27" x1="636.74" y1="349.99" x2="636.74" y2="379.49"/><line class="cls-27" x1="475.99" y1="223.28" x2="461.61" y2="223.28"/><line class="cls-27" x1="461.61" y1="379.49" x2="461.61" y2="223.28"/><rect class="cls-1" x="412.45" y="454.32" width="84.91" height="27.54"/><text class="cls-2" transform="translate(423.54 471.61)"><tspan class="cls-16">P</tspan><tspan x="7.1" y="0">ost - hoc*</tspan></text><text class="cls-36" transform="translate(489.34 496.98)">*<tspan class="cls-37" x="4.15" y="0">S</tspan><tspan class="cls-38" x="9.14" y="0">olo pa</tspan><tspan class="cls-39" x="35.11" y="0">r</tspan><tspan x="38.33" y="0">a </tspan><tspan class="cls-40" x="45.27" y="0">t</tspan><tspan class="cls-38" x="48.52" y="0">est </tspan><tspan class="cls-41" x="62.92" y="0">c</tspan><tspan class="cls-38" x="67.34" y="0">on &gt; 2 </tspan><tspan class="cls-41" x="95.83" y="0">g</tspan><tspan x="101.36" y="0">rupos</tspan></text></svg>